<svg width="402" height="337" viewBox="0 0 402 337" fill="none" xmlns="http://www.w3.org/2000/svg">
<path d="M0.723406 320.706C0.498941 321.738 0.483172 322.804 0.677025 323.842C0.870879 324.881 1.27044 325.87 1.8522 326.751C2.43395 327.633 3.18615 328.389 4.06453 328.975C4.94291 329.562 5.92972 329.967 6.9669 330.166C50.8989 338.613 96.0773 338.183 139.84 328.901C183.604 319.618 225.067 301.671 261.787 276.117C298.507 250.563 329.741 217.919 353.651 180.107C377.56 142.295 393.66 100.081 401.002 55.9505C401.176 54.9086 401.139 53.8426 400.894 52.8152C400.649 51.7878 400.201 50.8197 399.577 49.9679C398.952 49.1161 398.164 48.3978 397.258 47.8553C396.352 47.3128 395.346 46.9571 394.3 46.809L70.2743 0.922852L0.723406 320.706Z" fill="#EB7F3E"/>
</svg>
