<svg width="23" height="336" viewBox="0 0 23 336" fill="none" xmlns="http://www.w3.org/2000/svg">
<path d="M22.9517 9.45038C23.0249 8.39674 22.8866 7.33909 22.5449 6.3397C22.2033 5.3403 21.6652 4.41934 20.9623 3.631C20.2594 2.84266 19.406 2.20287 18.4522 1.74928C17.4983 1.29569 16.4634 1.03745 15.4083 0.989773C13.7504 0.914862 12.092 0.852261 10.4332 0.801976C9.37751 0.769974 8.32608 0.949462 7.34078 1.32986C6.35549 1.71026 5.45623 2.28388 4.69592 3.01699C3.93562 3.7501 3.32963 4.62788 2.91362 5.59868C2.4976 6.56948 2.27996 7.61366 2.27351 8.66982L0.274414 335.923L22.9517 9.45038Z" fill="#20AF5F"/>
</svg>
