<svg width="48" height="334" viewBox="0 0 48 334" fill="none" xmlns="http://www.w3.org/2000/svg">
<path d="M47.499 10.0893C47.6514 9.0442 47.5932 7.97914 47.3279 6.95683C47.0625 5.93452 46.5954 4.97561 45.954 4.13653C45.3125 3.29744 44.5097 2.59513 43.5928 2.07092C42.6759 1.54671 41.6634 1.2112 40.6149 1.08412C38.9674 0.884437 37.3184 0.69699 35.6681 0.521795C34.6178 0.410298 33.5558 0.509995 32.5447 0.815031C31.5335 1.12007 30.5936 1.62429 29.7802 2.29799C28.9667 2.9717 28.2963 3.8013 27.8083 4.73797C27.3203 5.67464 27.0245 6.69946 26.9385 7.75213L0.274414 333.923L47.499 10.0893Z" fill="#AED362"/>
</svg>
