<svg width="72" height="330" viewBox="0 0 72 330" fill="none" xmlns="http://www.w3.org/2000/svg">
<path d="M71.7775 10.5707C72.0082 9.54 72.0305 8.4736 71.843 7.4342C71.6555 6.3948 71.262 5.4034 70.6856 4.51834C70.1093 3.63329 69.3617 2.87245 68.4869 2.28061C67.6121 1.68877 66.6278 1.2779 65.5919 1.07213C63.9641 0.748818 62.3339 0.437593 60.7015 0.138485C59.6627 -0.0518722 58.5962 -0.0325145 57.5649 0.195424C56.5336 0.423363 55.5583 0.855264 54.6965 1.46573C53.8346 2.0762 53.1035 2.8529 52.5463 3.75012C51.989 4.64733 51.6169 5.64695 51.4517 6.69014L0.274414 329.923L71.7775 10.5707Z" fill="#F4E451"/>
</svg>
