<svg width="336" height="661" viewBox="0 0 336 661" fill="none" xmlns="http://www.w3.org/2000/svg">
<path d="M333.276 8.66982C333.27 7.61366 333.052 6.56948 332.636 5.59868C332.22 4.62788 331.614 3.7501 330.854 3.01699C330.093 2.28388 329.194 1.71026 328.209 1.32986C327.224 0.949462 326.172 0.769974 325.116 0.801976C244.364 3.2499 167.211 34.7743 107.849 89.5762C48.4883 144.378 10.9117 218.772 2.032 299.072C-6.84771 379.372 13.5667 460.179 59.5198 526.626C105.473 593.074 173.874 640.694 252.141 660.727C253.164 660.988 254.23 661.043 255.274 660.887C256.319 660.731 257.322 660.368 258.224 659.819C259.126 659.269 259.909 658.545 260.527 657.689C261.145 656.832 261.586 655.861 261.823 654.832L335.275 335.923L333.276 8.66982Z" fill="#DE4D3C"/>
</svg>
