<svg width="136" height="325" viewBox="0 0 136 325" fill="none" xmlns="http://www.w3.org/2000/svg">
<path d="M134.378 26.4019C134.81 25.4384 135.046 24.3982 135.071 23.3423C135.096 22.2864 134.909 21.2362 134.522 20.2536C134.135 19.2709 133.555 18.3756 132.817 17.6203C132.078 16.865 131.196 16.2651 130.223 15.8557C115.656 9.73118 100.675 4.64411 85.3911 0.632517C84.3695 0.364384 83.3046 0.303293 82.2591 0.452837C81.2135 0.602381 80.2085 0.959547 79.303 1.5033C78.3976 2.04706 77.61 2.76643 76.9867 3.61908C76.3634 4.47174 75.917 5.44044 75.6737 6.46821L0.274414 324.923L134.378 26.4019Z" fill="#FECC4F"/>
</svg>
