<svg width="336" height="344" viewBox="0 0 336 344" fill="none" xmlns="http://www.w3.org/2000/svg">
<path d="M324.841 343.847C325.889 343.983 326.953 343.907 327.971 343.625C328.988 343.343 329.94 342.86 330.768 342.205C331.597 341.55 332.286 340.736 332.795 339.811C333.304 338.885 333.623 337.867 333.733 336.817C340.862 268.686 326.951 200.006 293.872 140.019C260.792 80.032 210.131 31.6173 148.707 1.29009C147.76 0.822508 146.729 0.549072 145.675 0.485872C144.62 0.422672 143.564 0.570991 142.568 0.922091C141.572 1.27319 140.656 1.81998 139.874 2.53029C139.093 3.2406 138.461 4.10007 138.016 5.05814L0.274414 301.923L324.841 343.847Z" fill="#EEA443"/>
</svg>
